<?xml version="1.0"?>
<svg xmlns="http://www.w3.org/2000/svg" height="512px" viewBox="0 -96 512 512" width="512px" class=""><g><path d="m160 320c-88.234375 0-160-71.765625-160-160s71.765625-160 160-160c21.695312 0 42.710938 4.265625 62.507812 12.671875 5.417969 2.304687 7.957032 8.554687 5.628907 13.996094-2.28125 5.394531-8.574219 7.976562-13.992188 5.628906-17.109375-7.273437-35.351562-10.964844-54.144531-10.964844-76.457031 0-138.667969 62.210938-138.667969 138.667969s62.210938 138.667969 138.667969 138.667969 138.667969-62.210938 138.667969-138.667969c0-27.414062-8-53.929688-23.105469-76.652344-3.265625-4.90625-1.917969-11.539062 2.988281-14.78125 4.925781-3.265625 11.539063-1.921875 14.78125 2.984375 17.453125 26.21875 26.667969 56.832031 26.667969 88.449219 0 88.234375-71.765625 160-160 160zm0 0" data-original="#000000" class="active-path" data-old_color="#ffffff" fill="#ffffff"/><path d="m352 320c-21.566406 0-42.515625-4.222656-62.230469-12.542969-5.417969-2.285156-7.976562-8.535156-5.671875-13.972656 2.28125-5.421875 8.554688-7.980469 13.972656-5.675781 17.066407 7.210937 35.21875 10.859375 53.929688 10.859375 76.457031 0 138.667969-62.210938 138.667969-138.667969s-62.210938-138.667969-138.667969-138.667969-138.667969 62.210938-138.667969 138.667969c0 27.414062 7.980469 53.910156 23.082031 76.628906 3.265626 4.90625 1.921876 11.542969-2.984374 14.785156-4.949219 3.261719-11.542969 1.898438-14.785157-2.988281-17.429687-26.21875-26.644531-56.808593-26.644531-88.425781 0-88.234375 71.765625-160 160-160s160 71.765625 160 160-71.765625 160-160 160zm0 0" data-original="#000000" class="active-path" data-old_color="#ffffff" fill="#ffffff"/></g> </svg>
